# xmcd CD database file
#
# Track frame offsets:
#	150
#	20920
#	32063
#	48472
#	55811
#	66069
#	77539
#	92436
#	104359
#	117557
#	138605
#	150410
#	166436
#	181159
#	196091
#	212639
#
# Disc length: 3085 seconds
#
# Revision: 0
# Processed by: cddbd v1.5.2PL0 Copyright (c) Steve Scherf et al.
# Submitted via: CDex 1.81
#
DISCID=d40c0b10
DTITLE=Randy Plummer - Branson
DYEAR=2004
DGENRE=Country
TTITLE0=Branson
TTITLE1=An Ozark Prayer
TTITLE2=Far Side Banks of Jordan
TTITLE3=Gone at Last
TTITLE4=One of These Days
TTITLE5=I'lll Stick By You (feat. Darrel and Rosie Plummer)
TTITLE6=Who's Gonna Fill Their Shoes
TTITLE7=There Juast Ain't No Tellin' (What All the Lord Can Do)
TTITLE8=Amazing Grace
TTITLE9=This is Your Land (The II Chronicles 7:14 Song)
TTITLE10=The Wonderful Son of God
TTITLE11=He Will Surely Shine His Light
TTITLE12=I'll Be Movin' Upstairs
TTITLE13=We Give You Glory Lord
TTITLE14=Sing Your Hosannas to the King
TTITLE15=The One You'll Do Without (Branson, MO, 1973 Opening Night)
EXTD=YEAR: 2004
EXTT0=
EXTT1=
EXTT2=
EXTT3=
EXTT4=
EXTT5=
EXTT6=
EXTT7=
EXTT8=
EXTT9=
EXTT10=
EXTT11=
EXTT12=
EXTT13=
EXTT14=
EXTT15=
PLAYORDER=
